<?xml version="1.0" encoding="UTF-8"?>
<svg id="_Слой_1" data-name="Слой 1" xmlns="http://www.w3.org/2000/svg" viewBox="0 0 421.17 100">
  <defs>
    <style>
      .cls-1, .cls-2 {
        fill: none;
      }

      .cls-1, .cls-3 {
        stroke-width: 0px;
      }

      .cls-2 {
        stroke: #010101;
        stroke-linecap: round;
        stroke-linejoin: round;
        stroke-width: 2.5px;
      }

      .cls-3 {
        fill: #1d1d1b;
      }
    </style>
  </defs>
  <rect class="cls-1" width="421.17" height="100"/>
  <g>
    <path class="cls-3" d="m109.46,50.26h7.08v3.05h-7.08v8.03h-3.25v-8.03h-7.08v-3.05h7.08v-7.42h3.25v7.42Z"/>
    <path class="cls-3" d="m124.83,49.61h2.42c1.52-.02,2.72-.42,3.59-1.2.87-.78,1.31-1.83,1.31-3.16,0-2.98-1.48-4.47-4.45-4.47-1.4,0-2.51.4-3.34,1.2-.83.8-1.25,1.85-1.25,3.17h-3.23c0-2.01.74-3.68,2.21-5.02,1.47-1.33,3.34-2,5.61-2,2.4,0,4.27.63,5.63,1.9,1.36,1.27,2.04,3.03,2.04,5.29,0,1.11-.36,2.18-1.07,3.21-.72,1.04-1.69,1.81-2.92,2.32,1.4.44,2.47,1.17,3.24,2.2s1.14,2.27,1.14,3.75c0,2.28-.75,4.09-2.23,5.43-1.49,1.34-3.43,2.01-5.81,2.01s-4.32-.65-5.82-1.94c-1.49-1.29-2.24-3-2.24-5.11h3.25c0,1.34.44,2.41,1.31,3.21.87.8,2.04,1.2,3.51,1.2,1.56,0,2.75-.41,3.58-1.22s1.24-1.98,1.24-3.51-.45-2.61-1.36-3.4-2.22-1.2-3.93-1.22h-2.42v-2.63Z"/>
    <path class="cls-3" d="m156.6,40.29l-10.52,23.59h-3.38l10.49-22.75h-13.75v-2.65h17.17v1.81Z"/>
    <path class="cls-3" d="m161.75,51.15l1.29-12.67h13.02v2.98h-10.28l-.77,6.93c1.25-.73,2.66-1.1,4.24-1.1,2.31,0,4.15.77,5.51,2.29,1.36,1.53,2.04,3.6,2.04,6.2s-.71,4.68-2.12,6.19c-1.41,1.51-3.39,2.26-5.92,2.26-2.25,0-4.08-.62-5.5-1.87-1.42-1.25-2.23-2.97-2.43-5.17h3.05c.2,1.45.71,2.55,1.55,3.29.84.74,1.94,1.11,3.32,1.11,1.5,0,2.68-.51,3.53-1.54.86-1.02,1.28-2.44,1.28-4.24,0-1.7-.46-3.06-1.39-4.09s-2.15-1.54-3.69-1.54c-1.41,0-2.51.31-3.32.92l-.85.7-2.58-.66Z"/>
    <path class="cls-3" d="m205.82,63.88h-16.64v-2.32l8.79-9.77c1.3-1.48,2.2-2.68,2.7-3.6.49-.92.74-1.88.74-2.87,0-1.33-.4-2.41-1.2-3.26-.8-.85-1.87-1.27-3.21-1.27-1.61,0-2.85.46-3.74,1.37-.89.91-1.33,2.18-1.33,3.81h-3.23c0-2.34.75-4.23,2.26-5.67,1.51-1.44,3.52-2.16,6.05-2.16,2.36,0,4.23.62,5.6,1.86,1.37,1.24,2.06,2.89,2.06,4.95,0,2.5-1.59,5.48-4.78,8.93l-6.8,7.38h12.75v2.63Z"/>
    <path class="cls-3" d="m221.61,52.72c-.67.8-1.48,1.45-2.42,1.94s-1.96.73-3.08.73c-1.47,0-2.74-.36-3.83-1.08-1.09-.72-1.93-1.74-2.52-3.04-.59-1.31-.89-2.75-.89-4.34,0-1.7.32-3.23.97-4.59s1.56-2.4,2.75-3.12,2.57-1.08,4.15-1.08c2.51,0,4.49.94,5.94,2.82,1.45,1.88,2.17,4.44,2.17,7.69v.94c0,4.94-.98,8.55-2.93,10.83-1.95,2.27-4.9,3.44-8.85,3.5h-.63v-2.74h.68c2.66-.05,4.71-.74,6.14-2.08,1.43-1.34,2.21-3.46,2.34-6.36Zm-4.97,0c1.08,0,2.08-.33,2.99-1,.91-.66,1.58-1.48,2-2.46v-1.29c0-2.12-.46-3.84-1.38-5.16-.92-1.33-2.08-1.99-3.49-1.99s-2.56.54-3.42,1.63c-.86,1.09-1.29,2.52-1.29,4.3s.42,3.16,1.25,4.28c.83,1.12,1.95,1.68,3.34,1.68Z"/>
    <path class="cls-3" d="m254.8,63.88h-16.64v-2.32l8.79-9.77c1.3-1.48,2.2-2.68,2.7-3.6.49-.92.74-1.88.74-2.87,0-1.33-.4-2.41-1.2-3.26-.8-.85-1.87-1.27-3.21-1.27-1.61,0-2.85.46-3.74,1.37-.89.91-1.33,2.18-1.33,3.81h-3.23c0-2.34.75-4.23,2.26-5.67,1.51-1.44,3.52-2.16,6.05-2.16,2.36,0,4.23.62,5.6,1.86,1.37,1.24,2.06,2.89,2.06,4.95,0,2.5-1.59,5.48-4.78,8.93l-6.8,7.38h12.75v2.63Z"/>
    <path class="cls-3" d="m274.86,63.88h-16.64v-2.32l8.79-9.77c1.3-1.48,2.2-2.68,2.7-3.6.49-.92.74-1.88.74-2.87,0-1.33-.4-2.41-1.2-3.26-.8-.85-1.87-1.27-3.21-1.27-1.61,0-2.85.46-3.74,1.37-.89.91-1.33,2.18-1.33,3.81h-3.23c0-2.34.75-4.23,2.26-5.67,1.51-1.44,3.52-2.16,6.05-2.16,2.36,0,4.23.62,5.6,1.86,1.37,1.24,2.06,2.89,2.06,4.95,0,2.5-1.59,5.48-4.78,8.93l-6.8,7.38h12.75v2.63Z"/>
    <path class="cls-3" d="m294.92,63.88h-16.64v-2.32l8.79-9.77c1.3-1.48,2.2-2.68,2.7-3.6.49-.92.74-1.88.74-2.87,0-1.33-.4-2.41-1.2-3.26-.8-.85-1.87-1.27-3.21-1.27-1.61,0-2.85.46-3.74,1.37-.89.91-1.33,2.18-1.33,3.81h-3.23c0-2.34.75-4.23,2.26-5.67,1.51-1.44,3.52-2.16,6.05-2.16,2.36,0,4.23.62,5.6,1.86,1.37,1.24,2.06,2.89,2.06,4.95,0,2.5-1.59,5.48-4.78,8.93l-6.8,7.38h12.75v2.63Z"/>
    <path class="cls-3" d="m314.99,63.88h-16.64v-2.32l8.79-9.77c1.3-1.48,2.2-2.68,2.7-3.6.49-.92.74-1.88.74-2.87,0-1.33-.4-2.41-1.2-3.26-.8-.85-1.87-1.27-3.21-1.27-1.61,0-2.85.46-3.74,1.37-.89.91-1.33,2.18-1.33,3.81h-3.23c0-2.34.75-4.23,2.26-5.67,1.51-1.44,3.52-2.16,6.05-2.16,2.36,0,4.23.62,5.6,1.86,1.37,1.24,2.06,2.89,2.06,4.95,0,2.5-1.59,5.48-4.78,8.93l-6.8,7.38h12.75v2.63Z"/>
    <path class="cls-3" d="m343.65,40.29l-10.52,23.59h-3.38l10.49-22.75h-13.75v-2.65h17.17v1.81Z"/>
    <path class="cls-3" d="m348.8,51.15l1.29-12.67h13.02v2.98h-10.28l-.77,6.93c1.25-.73,2.66-1.1,4.24-1.1,2.31,0,4.15.77,5.51,2.29,1.36,1.53,2.04,3.6,2.04,6.2s-.71,4.68-2.12,6.19c-1.41,1.51-3.39,2.26-5.92,2.26-2.25,0-4.08-.62-5.5-1.87-1.42-1.25-2.23-2.97-2.43-5.17h3.05c.2,1.45.71,2.55,1.55,3.29.84.74,1.94,1.11,3.32,1.11,1.5,0,2.68-.51,3.53-1.54.86-1.02,1.28-2.44,1.28-4.24,0-1.7-.46-3.06-1.39-4.09s-2.15-1.54-3.69-1.54c-1.41,0-2.51.31-3.32.92l-.85.7-2.58-.66Z"/>
    <path class="cls-3" d="m379.75,52.72c-.67.8-1.48,1.45-2.42,1.94s-1.96.73-3.08.73c-1.47,0-2.74-.36-3.83-1.08-1.09-.72-1.93-1.74-2.52-3.04-.59-1.31-.89-2.75-.89-4.34,0-1.7.32-3.23.97-4.59s1.56-2.4,2.75-3.12,2.57-1.08,4.15-1.08c2.51,0,4.49.94,5.94,2.82,1.45,1.88,2.17,4.44,2.17,7.69v.94c0,4.94-.98,8.55-2.93,10.83-1.95,2.27-4.9,3.44-8.85,3.5h-.63v-2.74h.68c2.66-.05,4.71-.74,6.14-2.08,1.43-1.34,2.21-3.46,2.34-6.36Zm-4.97,0c1.08,0,2.08-.33,2.99-1,.91-.66,1.58-1.48,2-2.46v-1.29c0-2.12-.46-3.84-1.38-5.16-.92-1.33-2.08-1.99-3.49-1.99s-2.56.54-3.42,1.63c-.86,1.09-1.29,2.52-1.29,4.3s.42,3.16,1.25,4.28c.83,1.12,1.95,1.68,3.34,1.68Z"/>
  </g>
  <path class="cls-2" d="m35.84,38.73c0,14.84,12.03,26.87,26.87,26.87.67,0,1.33-.02,1.99-.07.75-.06,1.13-.08,1.47-.28.28-.16.55-.45.7-.75.17-.36.17-.77.17-1.61v-4.88c0-.7,0-1.05-.12-1.35-.1-.27-.27-.5-.48-.69-.24-.21-.57-.33-1.23-.57l-5.56-2.02c-.77-.28-1.15-.42-1.51-.39-.32.02-.63.13-.89.32-.3.21-.51.56-.93,1.26l-1.42,2.37c-4.59-2.08-8.32-5.81-10.4-10.4l2.37-1.42c.7-.42,1.05-.63,1.26-.93.19-.26.29-.57.32-.89.02-.36-.12-.75-.39-1.51l-2.02-5.56c-.24-.66-.36-.99-.57-1.23-.19-.21-.42-.38-.69-.48-.3-.12-.65-.12-1.35-.12h-4.88c-.83,0-1.25,0-1.61.17-.3.14-.59.41-.75.7-.2.34-.23.72-.28,1.47-.05.66-.07,1.32-.07,1.99Z"/>
</svg>