<?xml version="1.0" encoding="UTF-8"?>
<svg id="_Слой_1" data-name="Слой 1" xmlns="http://www.w3.org/2000/svg" xmlns:xlink="http://www.w3.org/1999/xlink" viewBox="0 0 318.3 100">
  <defs>
    <style>
      .cls-1 {
        fill: url(#_Безымянный_градиент_3-2);
      }

      .cls-1, .cls-2, .cls-3, .cls-4 {
        stroke-width: 0px;
      }

      .cls-2 {
        fill: url(#_Безымянный_градиент_3);
      }

      .cls-3 {
        fill: none;
      }

      .cls-4 {
        fill: #fff;
      }
    </style>
    <radialGradient id="_Безымянный_градиент_3" data-name="Безымянный градиент 3" cx="193.74" cy="54.91" fx="193.74" fy="54.91" r="56.12" gradientUnits="userSpaceOnUse">
      <stop offset=".09" stop-color="#f28e29"/>
      <stop offset=".78" stop-color="#d92f7f"/>
    </radialGradient>
    <radialGradient id="_Безымянный_градиент_3-2" data-name="Безымянный градиент 3" cx="271.5" cy="-1730.62" fx="271.5" fy="-1730.62" r="235.37" gradientTransform="translate(-14.76 -340.4) scale(.24 -.24)" xlink:href="#_Безымянный_градиент_3"/>
  </defs>
  <rect class="cls-3" width="318.3" height="100"/>
  <g>
    <path class="cls-2" d="m119.46,38.86c.33.36.49.8.49,1.33s-.16.96-.49,1.31c-.33.35-.8.52-1.43.52s-1.1-.17-1.42-.52c-.32-.35-.48-.79-.48-1.31s.16-.97.48-1.33c.32-.36.79-.54,1.42-.54s1.11.18,1.43.54Zm-3.07,25.21h3.23v-18.88h-3.23v18.88Zm17.2-19.23c-2.33,0-4.21.91-5.65,2.72l-.1-2.37h-3.05v18.88h3.23v-13.45c.44-.91,1.06-1.64,1.85-2.2.79-.56,1.71-.84,2.76-.84,1.29,0,2.24.33,2.85.98.61.65.92,1.66.93,3.02v12.49h3.23v-12.47c-.04-4.5-2.05-6.75-6.04-6.75Zm22.18,9.61c-1-.5-2.31-.93-3.92-1.29-1.61-.36-2.72-.74-3.34-1.13-.62-.39-.92-.98-.92-1.76,0-.83.33-1.49.99-2.01s1.58-.77,2.76-.77,2.08.32,2.83.96,1.12,1.4,1.12,2.29h3.25c0-1.72-.67-3.13-2-4.24-1.33-1.1-3.07-1.66-5.21-1.66s-3.71.54-5.02,1.61-1.96,2.38-1.96,3.92c0,.93.23,1.73.69,2.41.46.67,1.17,1.26,2.13,1.74.96.49,2.26.91,3.89,1.26,1.63.35,2.78.76,3.44,1.25s.99,1.16.99,2.03c0,.83-.37,1.49-1.11,1.98-.74.5-1.72.74-2.94.74-1.33,0-2.39-.32-3.2-.95-.81-.63-1.24-1.49-1.3-2.57h-3.23c0,1.12.33,2.15.99,3.11.66.96,1.57,1.71,2.73,2.24,1.16.54,2.5.8,4.01.8,2.15,0,3.9-.51,5.25-1.53,1.35-1.02,2.02-2.37,2.02-4.06,0-1.01-.24-1.87-.72-2.57-.48-.7-1.22-1.31-2.22-1.81Zm12,6.66c-.31-.38-.47-.95-.47-1.7v-11.72h3.52v-2.5h-3.52v-4.57h-3.23v4.57h-3.44v2.5h3.44v11.71c0,1.61.37,2.84,1.1,3.72.73.87,1.82,1.31,3.26,1.31.8,0,1.63-.12,2.48-.35v-2.6c-.65.14-1.16.21-1.54.21-.76,0-1.29-.19-1.61-.57Zm21.2-1.46c0,1.73.22,3.11.66,4.13v.28h-3.38c-.19-.37-.34-1.04-.45-1.99-1.5,1.56-3.29,2.34-5.37,2.34-1.86,0-3.39-.53-4.58-1.58-1.19-1.05-1.79-2.39-1.79-4,0-1.97.75-3.49,2.24-4.58,1.5-1.09,3.6-1.63,6.31-1.63h3.14v-1.48c0-1.13-.34-2.03-1.01-2.7-.67-.67-1.67-1-2.98-1-1.15,0-2.12.29-2.9.87-.78.58-1.17,1.29-1.17,2.11h-3.25c0-.94.33-1.85,1-2.73s1.58-1.57,2.72-2.08,2.4-.77,3.78-.77c2.17,0,3.88.54,5.11,1.63,1.23,1.09,1.87,2.59,1.92,4.49v8.69Zm-3.23-4.75h-2.53c-3.96,0-5.93,1.16-5.93,3.47,0,1.01.34,1.8,1.01,2.37.67.57,1.54.86,2.6.86s1.97-.26,2.88-.79,1.56-1.2,1.97-2.04v-3.87Zm20.52-9.72h2.95v18.42c0,2.44-.72,4.37-2.17,5.78s-3.39,2.11-5.84,2.11c-1.36,0-2.69-.29-4-.87-1.3-.58-2.3-1.38-2.98-2.39l1.67-1.94c1.38,1.71,3.08,2.56,5.08,2.56,1.57,0,2.79-.44,3.67-1.33.88-.88,1.32-2.13,1.32-3.73v-1.62c-1.29,1.49-3.05,2.23-5.29,2.23s-4-.89-5.37-2.67c-1.37-1.78-2.05-4.21-2.05-7.28s.68-5.28,2.04-7.02c1.36-1.74,3.16-2.61,5.41-2.61s4.1.81,5.39,2.44l.16-2.09Zm-.3,5.09c-.99-1.8-2.47-2.7-4.45-2.7-1.57,0-2.8.61-3.68,1.83-.88,1.22-1.33,3.03-1.33,5.43,0,2.13.44,3.8,1.31,5.02.87,1.22,2.09,1.82,3.66,1.82,2.04,0,3.53-.92,4.48-2.77v-8.62Zm11.31-2.91l-.05-2.18h-3.14v18.88h3.23v-13.4c.76-1.8,2.19-2.7,4.31-2.7.57,0,1.1.04,1.59.12v-3c-.33-.16-.8-.24-1.43-.24-1.94,0-3.44.84-4.5,2.53Zm22.58,12.28c0,1.73.22,3.11.66,4.13v.28h-3.38c-.19-.37-.34-1.04-.45-1.99-1.5,1.56-3.29,2.34-5.37,2.34-1.86,0-3.39-.53-4.58-1.58-1.19-1.05-1.79-2.39-1.79-4,0-1.97.75-3.49,2.24-4.58,1.5-1.09,3.6-1.63,6.31-1.63h3.14v-1.48c0-1.13-.34-2.03-1.01-2.7-.67-.67-1.67-1-2.98-1-1.15,0-2.12.29-2.9.87-.78.58-1.17,1.29-1.17,2.11h-3.25c0-.94.33-1.85,1-2.73s1.58-1.57,2.72-2.08,2.4-.77,3.78-.77c2.17,0,3.88.54,5.11,1.63,1.23,1.09,1.87,2.59,1.92,4.49v8.69Zm-3.23-4.75h-2.53c-3.96,0-5.93,1.16-5.93,3.47,0,1.01.34,1.8,1.01,2.37.67.57,1.54.86,2.6.86s1.97-.26,2.88-.79,1.56-1.2,1.97-2.04v-3.87Zm28.42-10.07c-1.37,0-2.56.28-3.57.84-1.01.56-1.82,1.29-2.45,2.2-.95-2.02-2.75-3.04-5.39-3.04-2.35,0-4.22.81-5.6,2.44l-.09-2.09h-3.05v18.88h3.23v-13.78c.78-1.8,2.23-2.7,4.34-2.7,2.69,0,4.03,1.37,4.03,4.12v12.37h3.25v-12.53c.13-1.21.59-2.17,1.38-2.89.79-.72,1.79-1.07,2.98-1.07,1.45,0,2.49.33,3.11,1,.62.67.92,1.68.92,3.03v12.46h3.23v-12.65c-.07-4.38-2.17-6.58-6.32-6.58Z"/>
    <g>
      <path class="cls-1" d="m58.12,71.88c-2.62-.12-4.05-.56-4.99-.92-1.25-.49-2.15-1.07-3.09-2.01s-1.52-1.84-2.01-3.09c-.37-.95-.81-2.37-.92-4.99-.13-2.83-.16-3.68-.16-10.86s.03-8.03.16-10.86c.12-2.62.56-4.04.92-4.99.49-1.25,1.07-2.15,2.01-3.09.94-.94,1.84-1.52,3.09-2.01.95-.37,2.37-.81,4.99-.92,2.83-.13,3.69-.16,10.86-.16s8.03.03,10.86.16c2.62.12,4.04.56,4.99.92,1.25.49,2.15,1.07,3.09,2.01.94.94,1.52,1.84,2.01,3.09.37.95.81,2.37.92,4.99.13,2.84.16,3.69.16,10.86s-.03,8.03-.16,10.86c-.12,2.62-.56,4.05-.92,4.99-.49,1.25-1.07,2.15-2.01,3.09s-1.84,1.52-3.09,2.01c-.95.37-2.37.81-4.99.92-2.83.13-3.69.16-10.86.16s-8.03-.02-10.86-.16"/>
      <path class="cls-4" d="m63.57,50.09c0-3.01,2.44-5.46,5.46-5.46s5.46,2.44,5.46,5.46-2.44,5.46-5.46,5.46-5.46-2.44-5.46-5.46m-2.95,0c0,4.64,3.76,8.41,8.41,8.41s8.41-3.76,8.41-8.41-3.76-8.41-8.41-8.41-8.41,3.76-8.41,8.41m15.18-8.74c0,1.09.88,1.97,1.96,1.97,1.09,0,1.97-.88,1.97-1.96s-.88-1.97-1.96-1.97h0c-1.08,0-1.96.88-1.97,1.96m-13.39,22.07c-1.6-.07-2.46-.34-3.04-.56-.76-.3-1.31-.65-1.88-1.22s-.93-1.12-1.22-1.88c-.22-.58-.49-1.44-.56-3.04-.08-1.73-.1-2.24-.1-6.62s.02-4.89.1-6.62c.07-1.6.34-2.46.56-3.04.3-.76.65-1.31,1.22-1.88s1.12-.93,1.88-1.22c.58-.22,1.44-.49,3.04-.56,1.73-.08,2.24-.1,6.62-.1s4.89.02,6.62.1c1.6.07,2.46.34,3.04.56.76.3,1.31.65,1.88,1.22s.93,1.12,1.22,1.88c.22.58.49,1.44.56,3.04.08,1.73.1,2.24.1,6.62s-.02,4.89-.1,6.62c-.07,1.6-.34,2.46-.56,3.04-.3.76-.65,1.31-1.22,1.88s-1.12.93-1.88,1.22c-.58.22-1.44.49-3.04.56-1.73.08-2.24.1-6.62.1s-4.89-.02-6.62-.1m-.14-29.61c-1.74.08-2.93.36-3.97.76-1.08.42-1.99.98-2.9,1.89s-1.47,1.82-1.89,2.9c-.4,1.04-.68,2.23-.76,3.97-.08,1.75-.1,2.3-.1,6.75s.02,5.01.1,6.75c.08,1.74.36,2.93.76,3.97.42,1.08.98,1.99,1.89,2.9s1.82,1.47,2.9,1.89c1.04.4,2.23.68,3.97.76,1.75.08,2.3.1,6.75.1s5.01-.02,6.75-.1c1.74-.08,2.93-.36,3.97-.76,1.08-.42,1.99-.98,2.9-1.89s1.47-1.82,1.89-2.9c.4-1.04.68-2.23.76-3.97.08-1.75.1-2.3.1-6.75s-.02-5.01-.1-6.75c-.08-1.74-.36-2.93-.76-3.97-.42-1.08-.98-1.99-1.89-2.9s-1.82-1.47-2.9-1.89c-1.04-.4-2.23-.68-3.97-.76-1.75-.08-2.3-.1-6.75-.1s-5.01.02-6.75.1"/>
    </g>
  </g>
</svg>