<?xml version="1.0" encoding="UTF-8"?>
<svg id="_Слой_1" data-name="Слой 1" xmlns="http://www.w3.org/2000/svg" viewBox="0 0 246.21 100">
  <defs>
    <style>
      .cls-1 {
        fill-rule: evenodd;
      }

      .cls-1, .cls-2, .cls-3 {
        stroke-width: 0px;
      }

      .cls-1, .cls-3 {
        fill: #5d5ca5;
      }

      .cls-2 {
        fill: none;
      }
    </style>
  </defs>
  <rect class="cls-2" width="246.21" height="100"/>
  <g>
    <g>
      <path class="cls-3" d="m130.05,59.43l7.26-20.95h3.66l-9.42,25.4h-2.97l-9.4-25.4h3.65l7.22,20.95Z"/>
      <path class="cls-3" d="m143.88,40c0-.52.16-.97.48-1.33.32-.36.79-.54,1.42-.54s1.11.18,1.43.54c.33.36.49.8.49,1.33s-.16.96-.49,1.31c-.33.35-.8.52-1.43.52s-1.1-.17-1.42-.52c-.32-.35-.48-.79-.48-1.31Zm3.49,23.88h-3.23v-18.88h3.23v18.88Z"/>
      <path class="cls-3" d="m168.52,54.65c0,2.88-.66,5.2-1.99,6.95-1.33,1.75-3.11,2.63-5.34,2.63-2.38,0-4.23-.84-5.53-2.53l-.16,2.18h-2.97v-26.8h3.23v10c1.3-1.62,3.1-2.42,5.39-2.42s4.09.87,5.4,2.6c1.31,1.73,1.96,4.11,1.96,7.12v.28Zm-3.23-.37c0-2.2-.42-3.9-1.27-5.09-.85-1.2-2.07-1.8-3.66-1.8-2.13,0-3.66.99-4.59,2.97v8.17c.99,1.98,2.53,2.97,4.62,2.97,1.55,0,2.75-.6,3.61-1.8.86-1.2,1.29-3,1.29-5.41Z"/>
      <path class="cls-3" d="m180.42,64.23c-2.56,0-4.64-.84-6.25-2.52s-2.41-3.93-2.41-6.74v-.59c0-1.87.36-3.54,1.07-5.02.72-1.47,1.72-2.62,3-3.46,1.29-.83,2.68-1.25,4.18-1.25,2.45,0,4.36.81,5.72,2.42,1.36,1.62,2.04,3.93,2.04,6.94v1.34h-12.79c.05,1.86.59,3.37,1.63,4.51s2.36,1.72,3.97,1.72c1.14,0,2.1-.23,2.9-.7s1.48-1.08,2.08-1.85l1.97,1.54c-1.58,2.43-3.95,3.65-7.12,3.65Zm-.4-16.92c-1.3,0-2.4.47-3.28,1.42s-1.43,2.28-1.64,3.99h9.46v-.24c-.09-1.64-.54-2.91-1.33-3.81s-1.86-1.35-3.21-1.35Z"/>
      <path class="cls-3" d="m200.64,47.9c-.49-.08-1.02-.12-1.59-.12-2.12,0-3.55.9-4.31,2.7v13.4h-3.23v-18.88h3.14l.05,2.18c1.06-1.69,2.56-2.53,4.5-2.53.63,0,1.11.08,1.43.24v3Z"/>
    </g>
    <g>
      <path class="cls-3" d="m79.26,27.13c-1.53,0-2.77,1.24-2.77,2.77s1.24,2.77,2.77,2.77c3.53,0,6.26,1.16,8.09,3,1.84,1.84,3,4.56,3,8.09,0,1.53,1.24,2.77,2.77,2.77s2.77-1.24,2.77-2.77c0-4.79-1.61-9-4.63-12.02-3.02-3.02-7.23-4.63-12.02-4.63Z"/>
      <path class="cls-3" d="m57.11,38.24c.32-2.51,3.57-5.91,6.16-5.54h0c2.16.41,3.94,3.66,5.1,5.8.19.35.37.67.53.95.8,1.41.28,2.84-.46,3.45-.09.07-.18.14-.27.21-.99.78-2.27,1.8-1.97,2.82.58,1.99,7.52,8.92,10.93,10.89,1.04.6,1.86-.57,2.55-1.57.16-.24.32-.46.47-.66.58-.78,2.01-1.24,3.42-.47,2.11,1.23,4.09,2.65,5.92,4.26.92.77,1.13,1.9.5,3.09-1.12,2.11-4.35,4.88-6.7,4.32-4.1-.99-20.68-7.41-26-26.03-.28-.82-.23-1.17-.19-1.46v-.07Z"/>
      <path class="cls-3" d="m79.26,35.45c-1.53,0-2.77,1.24-2.77,2.77s1.24,2.77,2.77,2.77c.48,0,1.2.27,1.85.92.65.65.92,1.37.92,1.85,0,1.53,1.24,2.77,2.77,2.77s2.77-1.24,2.77-2.77c0-2.29-1.12-4.35-2.55-5.78-1.43-1.43-3.49-2.55-5.78-2.55Z"/>
      <path class="cls-1" d="m64.05,82.14c.08.04.16.08.24.12,1.51.65,3.36-.8,7.08-3.69l3.72-2.9c7.46.25,13.91-.73,18.9-2.48,5.58-1.95,9.96-6.34,11.91-11.91,2.69-7.69,2.69-21.78,0-29.47-1.95-5.58-6.34-9.96-11.91-11.91-8.88-3.11-26.3-3.05-35.02,0-5.58,1.95-9.96,6.34-11.91,11.91-2.69,7.69-2.69,21.78,0,29.47,1.95,5.58,6.34,9.96,11.91,11.91,1.09.38,2.32.8,3.64,1.09,0,4.71,0,7.06,1.44,7.85Zm4.11-8.1v-3.11c0-.65-.45-1.22-1.09-1.35-2.11-.45-4.21-.9-6.26-1.62-3.98-1.39-7.12-4.53-8.51-8.51-1.06-3.03-1.71-7.78-1.71-12.9s.65-9.88,1.71-12.9c1.39-3.98,4.53-7.12,8.51-8.51,3.52-1.23,9.34-1.99,15.62-2,6.28,0,12.14.74,15.73,2,3.98,1.39,7.12,4.53,8.51,8.51,1.06,3.03,1.71,7.78,1.71,12.9s-.65,9.88-1.71,12.9c-1.39,3.98-4.53,7.12-8.51,8.51-5.91,2.07-12.18,2.3-18.38,2.12-.32,0-.64.09-.9.29l-4.72,3.67Z"/>
    </g>
  </g>
</svg>