<?xml version="1.0" encoding="UTF-8"?>
<svg id="_Слой_2" data-name="Слой 2" xmlns="http://www.w3.org/2000/svg" viewBox="0 0 421.17 100">
  <defs>
    <style>
      .cls-1 {
        stroke: #010101;
        stroke-linecap: round;
        stroke-linejoin: round;
        stroke-width: 2.5px;
      }

      .cls-1, .cls-2 {
        fill: none;
      }

      .cls-3 {
        fill: #1d1d1b;
        font-family: Roboto-Regular, Roboto;
        font-size: 35.73px;
      }
    </style>
  </defs>
  <g id="_Слой_1-2" data-name="Слой 1">
    <rect class="cls-2" width="421.17" height="100"/>
    <text class="cls-3" transform="translate(97.77 63.88)"><tspan x="0" y="0">+375 29 2222 769</tspan></text>
    <path class="cls-1" d="M35.84,38.73c0,14.84,12.03,26.87,26.87,26.87.67,0,1.33-.02,1.99-.07.75-.06,1.13-.08,1.47-.28.28-.16.55-.45.7-.75.17-.36.17-.77.17-1.61v-4.88c0-.7,0-1.05-.12-1.35-.1-.27-.27-.5-.48-.69-.24-.21-.57-.33-1.23-.57l-5.56-2.02c-.77-.28-1.15-.42-1.51-.39-.32.02-.63.13-.89.32-.3.21-.51.56-.93,1.26l-1.42,2.37c-4.59-2.08-8.32-5.81-10.4-10.4l2.37-1.42c.7-.42,1.05-.63,1.26-.93.19-.26.29-.57.32-.89.02-.36-.12-.75-.39-1.51l-2.02-5.56c-.24-.66-.36-.99-.57-1.23-.19-.21-.42-.38-.69-.48-.3-.12-.65-.12-1.35-.12h-4.88c-.83,0-1.25,0-1.61.17-.3.14-.59.41-.75.7-.2.34-.23.72-.28,1.47-.05.66-.07,1.32-.07,1.99Z"/>
  </g>
</svg>