<?xml version="1.0" encoding="utf-8"?>
<!-- Generator: Adobe Illustrator 28.0.0, SVG Export Plug-In . SVG Version: 6.00 Build 0)  -->
<svg version="1.1" id="_Слой_1" xmlns="http://www.w3.org/2000/svg" xmlns:xlink="http://www.w3.org/1999/xlink" x="0px"
	 y="0px" viewBox="0 0 201.9 93.2" style="enable-background:new 0 0 201.9 93.2;" xml:space="preserve">
<style type="text/css">
	.st0{fill:#EBC170;}
</style>
<path class="st0" d="M0,83.2v-1.5l3.1-1c0.2-0.1,0.4-0.2,0.5-0.3s0.2-0.4,0.2-0.7v-22c0-0.3-0.1-0.5-0.2-0.7s-0.3-0.2-0.5-0.3
	l-3.1-1v-1.5h30v1.5l-3.1,1c-0.2,0.1-0.4,0.2-0.6,0.3c-0.2,0.2-0.2,0.4-0.2,0.6v21.9c0,0.3,0.1,0.5,0.2,0.7c0.2,0.2,0.4,0.3,0.6,0.3
	l3.1,1V83H18v-1.5l3.1-1c0.2-0.1,0.4-0.2,0.6-0.3s0.2-0.4,0.2-0.7v-23H8.1v23c0,0.3,0.1,0.5,0.2,0.7c0.1,0.2,0.3,0.3,0.6,0.3l3.1,1
	V83C12,83.2,0,83.2,0,83.2z M40.6,83.6c-1.3,0-2.4-0.3-3.3-0.9s-1.6-1.3-2.1-2.2s-0.8-1.9-0.8-3c0-1.4,0.3-2.6,1-3.5
	s1.6-1.7,2.6-2.3c1.1-0.6,2.2-1,3.4-1.2s2.3-0.4,3.3-0.4c0.2,0,0.5,0,1,0.1s0.9,0.1,1.4,0.1c0.5,0.1,0.8,0.1,1,0.1v-3
	c0-1.5-0.4-2.6-1.1-3.2s-1.7-0.9-2.9-0.9c-0.7,0-1.4,0.1-2.1,0.3c-0.7,0.2-1.3,0.5-2,0.9s-1.2,0.7-1.8,1.1c-0.5,0.4-1,0.7-1.4,0.9
	H36l-0.1-3.9c0.8-0.3,1.6-0.6,2.4-0.9c0.8-0.3,1.7-0.5,2.7-0.7s2-0.3,3.3-0.3s2.6,0.2,3.8,0.6c1.2,0.4,2.2,1.1,3,2.1
	s1.1,2.4,1.1,4.3v11.2c0,0.5,0.2,0.9,0.6,1.2c0.4,0.3,0.8,0.5,1.3,0.5c0.3,0,0.6-0.1,1-0.2s0.7-0.3,1-0.4h0.3v1.7
	c-0.3,0.2-0.6,0.4-1.1,0.7c-0.5,0.3-1,0.5-1.5,0.8c-0.5,0.2-1,0.3-1.5,0.3c-1.3,0-2.2-0.3-2.8-0.9s-0.9-1.5-0.9-2.8h-0.3
	c-0.7,1.1-1.6,1.8-2.5,2.4c-0.9,0.5-1.8,0.9-2.7,1.1C42.1,83.5,41.3,83.6,40.6,83.6L40.6,83.6z M42.5,80.7c0.9,0,1.9-0.2,3-0.6
	s1.9-1,2.5-1.8v-6.1c-1.9,0-3.5,0.1-4.9,0.3c-1.4,0.2-2.5,0.7-3.3,1.3c-0.8,0.7-1.2,1.6-1.2,2.8c0,1,0.2,1.8,0.6,2.4
	c0.4,0.6,0.9,1,1.5,1.2C41.3,80.6,41.9,80.7,42.5,80.7z M58.7,83.2v-1.4l2.4-0.8c0.2-0.1,0.4-0.2,0.6-0.3c0.1-0.1,0.2-0.3,0.2-0.6
	V65.2c0-0.3-0.1-0.5-0.2-0.6c-0.1-0.1-0.3-0.3-0.6-0.3l-2.4-0.8V62h9.8v1.5l-1.8,0.8c-0.2,0.1-0.4,0.2-0.6,0.3s-0.2,0.3-0.2,0.6v5.9
	h10v-5.9c0-0.3-0.1-0.5-0.2-0.6c-0.2-0.1-0.3-0.2-0.6-0.3l-1.8-0.8V62h9.8v1.5l-2.4,0.8c-0.2,0.1-0.4,0.2-0.6,0.3
	c-0.1,0.1-0.2,0.4-0.2,0.6V80c0,0.3,0.1,0.5,0.2,0.6s0.3,0.3,0.6,0.3l2.4,0.8v1.4h-9.8v-1.4L75,81c0.2-0.1,0.4-0.2,0.6-0.3
	s0.2-0.3,0.2-0.6v-6.8h-10V80c0,0.3,0.1,0.5,0.2,0.6c0.2,0.1,0.3,0.2,0.5,0.3l1.8,0.8v1.4L58.7,83.2L58.7,83.2z M100.1,83.2v-1.7
	l2.9-0.9c0.3-0.1,0.5-0.2,0.7-0.4s0.3-0.4,0.3-0.8V61.6c0-0.3-0.1-0.6-0.3-0.8s-0.4-0.3-0.7-0.4l-3.1-0.9v-1.8H122v9h-3l-1.2-5.6
	c-0.1-0.2-0.2-0.4-0.3-0.6s-0.4-0.2-0.7-0.2h-8.2v18.9c0,0.3,0.1,0.6,0.3,0.8s0.4,0.3,0.7,0.4l3.2,0.9V83L100.1,83.2L100.1,83.2z
	 M125.3,93.2v-1.5l2.6-0.8c0.2-0.1,0.4-0.2,0.6-0.3c0.1-0.1,0.2-0.3,0.2-0.6V65.7c0-0.3-0.1-0.5-0.2-0.7c-0.2-0.2-0.4-0.3-0.6-0.4
	l-2.4-1v-1.4l6.9-1.1v3.6h0.3c0.6-0.9,1.3-1.7,2.1-2.2s1.6-0.9,2.5-1.2c0.9-0.2,1.7-0.3,2.6-0.3c1.8,0,3.4,0.5,4.6,1.4
	c1.3,0.9,2.3,2.2,3,3.7c0.7,1.6,1,3.4,1,5.4c0,2.2-0.4,4.2-1.2,6.1s-2,3.3-3.5,4.4s-3.4,1.6-5.5,1.6c-1.3,0-2.3-0.2-3.2-0.7
	s-1.6-0.9-2.1-1.5V90c0,0.3,0.1,0.5,0.2,0.6c0.2,0.1,0.4,0.2,0.6,0.3l3.1,0.9v1.5C136.7,93.2,125.3,93.2,125.3,93.2z M132.7,66.2
	v13.6c0.4,0.2,0.9,0.5,1.5,0.6s1.2,0.3,1.8,0.3s1.1,0.1,1.4,0.1c1.5,0,2.8-0.4,3.7-1.1c1-0.7,1.7-1.7,2.2-2.9c0.5-1.2,0.7-2.6,0.7-4
	c0-1.7-0.2-3.2-0.7-4.5s-1.2-2.4-2.1-3.2c-1-0.8-2.2-1.2-3.8-1.2c-0.9,0-1.8,0.2-2.7,0.6C134,64.9,133.3,65.4,132.7,66.2L132.7,66.2
	z M159,83.6c-1.3,0-2.4-0.3-3.4-0.9c-0.9-0.6-1.6-1.3-2.1-2.2s-0.8-1.9-0.8-3c0-1.4,0.3-2.6,1-3.5s1.6-1.7,2.6-2.3
	c1.1-0.6,2.2-1,3.4-1.2s2.3-0.4,3.3-0.4c0.2,0,0.5,0,1,0.1s0.9,0.1,1.4,0.1c0.5,0.1,0.8,0.1,0.9,0.1v-3c0-1.5-0.4-2.6-1.1-3.2
	s-1.7-0.9-2.9-0.9c-0.7,0-1.4,0.1-2.1,0.3c-0.7,0.2-1.4,0.5-2,0.9s-1.2,0.7-1.8,1.1c-0.5,0.4-1,0.7-1.4,0.9h-0.8l-0.1-3.9
	c0.8-0.3,1.6-0.6,2.4-0.9s1.7-0.5,2.7-0.7s2.1-0.3,3.3-0.3c1.3,0,2.6,0.2,3.8,0.6c1.2,0.4,2.2,1.1,2.9,2.1s1.1,2.4,1.1,4.3v11.2
	c0,0.5,0.2,0.9,0.6,1.2c0.4,0.3,0.8,0.5,1.3,0.5c0.3,0,0.6-0.1,1-0.2s0.7-0.3,1-0.4h0.3v1.7c-0.3,0.2-0.6,0.4-1.1,0.7
	c-0.5,0.3-1,0.5-1.5,0.8c-0.5,0.2-1,0.3-1.4,0.3c-1.3,0-2.2-0.3-2.8-0.9s-0.9-1.5-0.9-2.8h-0.3c-0.7,1.1-1.6,1.8-2.5,2.4
	c-0.9,0.5-1.8,0.9-2.7,1.1C160.5,83.5,159.7,83.6,159,83.6L159,83.6z M160.9,80.7c0.9,0,1.9-0.2,3-0.6s1.9-1,2.5-1.8v-6.1
	c-1.9,0-3.5,0.1-4.9,0.3c-1.4,0.2-2.5,0.7-3.3,1.3c-0.8,0.7-1.2,1.6-1.2,2.8c0,1,0.2,1.8,0.6,2.4c0.4,0.6,0.9,1,1.5,1.2
	S160.4,80.7,160.9,80.7z M177.1,83.2v-1.5l2.5-0.8c0.2-0.1,0.4-0.2,0.6-0.3c0.1-0.2,0.2-0.4,0.2-0.7V64.7c0-0.3-0.1-0.5-0.2-0.7
	s-0.3-0.3-0.6-0.3l-2.5-0.8v-1.5h10V63l-1.9,0.8c-0.2,0.1-0.4,0.2-0.6,0.4c-0.2,0.1-0.2,0.3-0.2,0.6v6.1h10.2v-6.1
	c0-0.3-0.1-0.5-0.2-0.6c-0.2-0.1-0.4-0.3-0.6-0.3l-1.9-0.8v-1.5h10V63l-2.5,0.8c-0.2,0.1-0.4,0.2-0.6,0.3c-0.1,0.2-0.2,0.4-0.2,0.7
	V80c0,0.3,0.1,0.5,0.2,0.7s0.3,0.3,0.6,0.3l2.5,0.8v1.5h-10v-1.5l1.9-0.8c0.2-0.1,0.4-0.2,0.6-0.3c0.2-0.1,0.2-0.3,0.2-0.6V73h-10.2
	v6.9c0,0.3,0.1,0.5,0.2,0.6c0.2,0.1,0.4,0.3,0.6,0.3l1.9,0.8v1.5L177.1,83.2L177.1,83.2z M125.2,9.6c-3.2-0.2-5.3-0.4-7.4-0.5
	c-6.1-0.4-11.9-1.5-17.6-3.8C94.4,3,88.3,1.8,82,0c-6.4,6.9-12.7,13.5-19,20.2c2.2,8.7,4.4,16.9,11.7,23
	c5.8,4.9,10.8,10.9,15.9,16.2c1.2-0.4,1.8-0.4,2.2-0.8c5.9-6.3,13.5-7.3,21.5-6.8c3.7,0.2,6.9-0.8,10.1-2.7
	c6.5-4,13.2-7.8,19.8-11.7c1.1-3.6,2.1-7,3.2-10.8C138.7,22.4,128.9,19.8,125.2,9.6L125.2,9.6z M82.2,3.4c4.6,3.5,8.6,6.5,12.6,9.6
	c-3.8,5.8-7.4,11.3-11.1,17.1c-5.8-3.5-11.2-6.7-17-10.2C72.2,14.1,77,8.9,82.2,3.4z M139.7,37.3c-6.7,3.9-13.2,7.7-19.9,11.6
	c-4.8-4-9.4-7.8-14.5-12.1c9.4-3.1,17.8-5.8,26.4-8.6C134.4,31.2,136.9,34,139.7,37.3z M117.8,25.9c-10.3,1.4-20.1,2.7-31.1,4.2
	c4-6.2,7.3-11.2,10.7-16.4c6.7,2.4,13,4.8,19.5,7.1C117.1,22.3,117.4,23.7,117.8,25.9z M92.9,52.5c-2.4-6.9-4.5-13-6.8-19.7
	c11.9-1.6,23.2-3.2,34.4-4.7c0.1,0.3,0.1,0.6,0.2,1c-6.5,2.2-13,4.4-19.5,6.6C98.4,41.2,95.8,46.6,92.9,52.5z M83.1,32.7
	c2.1,6.8,5.9,12.9,6,20.4c-5.4-4.7-10.2-9.9-15.4-14.7c-4.4-4-5.3-9.2-6.4-15.2C73,26.6,78,29.6,83.1,32.7z M130.1,24.2
	c-5.4-2.5-10.4-4.8-15.7-7.3c-0.8-1.4-1.8-3.2-3.1-5.7c4.7,0.3,8.4,0.5,12.3,0.7C125.6,15.9,130.1,18.4,130.1,24.2z M115.9,48.8
	c-7.2,1.4-14-1-19.8,3.2c2.3-4.4,4.6-8.8,7.1-13.7C107.4,41.8,111.3,45,115.9,48.8z"/>
</svg>
