<?xml version="1.0" encoding="utf-8"?>
<!-- Generator: Adobe Illustrator 28.0.0, SVG Export Plug-In . SVG Version: 6.00 Build 0)  -->
<svg version="1.1" id="Слой_1" xmlns="http://www.w3.org/2000/svg" xmlns:xlink="http://www.w3.org/1999/xlink" x="0px" y="0px"
	 viewBox="0 0 500 500" style="enable-background:new 0 0 500 500;" xml:space="preserve">
<style type="text/css">
	.st0{fill:#E2C278;}
	.st1{font-family:'ArialMT';}
	.st2{font-size:24px;}
</style>
<g>
	<g>
		<g>
			<path class="st0" d="M201,224.5h90.2v-8H201c-9.4,0-17,7.6-17,17v9.9h-8.5l12.6,19.4l12.6-19.4H192v-9.9
				C192,228.5,196.1,224.5,201,224.5z"/>
			<path class="st0" d="M323.8,256.9l-12.6-19.4l-12.6,19.4h8.7v9.9c0,5-4,9-9,9h-90.2v8h90.2c9.4,0,17-7.6,17-17v-9.9H323.8z"/>
		</g>
	</g>
</g>
<g>
	<text transform="matrix(1 0 0 1 224.8733 258.5949)" class="st0 st1 st2">360 </text>
	<text transform="matrix(1 0 0 1 271.5733 258.5949)" class="st0 st1 st2">º</text>
	<text transform="matrix(1 0 0 1 282.1733 258.5949)" class="st0 st1 st2"> </text>
</g>
</svg>
