<?xml version="1.0" encoding="utf-8"?>
<!-- Generator: Adobe Illustrator 28.0.0, SVG Export Plug-In . SVG Version: 6.00 Build 0)  -->
<svg version="1.1" id="_Слой_2" xmlns="http://www.w3.org/2000/svg" xmlns:xlink="http://www.w3.org/1999/xlink" x="0px"
	 y="0px" viewBox="0 0 501.5 227.7" style="enable-background:new 0 0 501.5 227.7;" xml:space="preserve">
<style type="text/css">
	.st0{fill:#E2C278;}
</style>
<g id="_Слой_1-2">
	<g>
		<g>
			<path class="st0" d="M86.2,27.1h305.1V0H86.2C54.5,0,28.7,25.8,28.7,57.5V91H0l42.5,65.7L85,91H55.8V57.5
				C55.8,40.7,69.4,27.1,86.2,27.1z"/>
			<path class="st0" d="M501.5,136.6L458.9,71l-42.5,65.7h29.3v33.5c0,16.8-13.7,30.4-30.5,30.4H110.2v27.1h305.1
				c31.7,0,57.5-25.8,57.5-57.5v-33.5H501.5z"/>
		</g>
		<g>
			<path class="st0" d="M170.3,127.1l7.1-0.9c0.8,4,2.2,7,4.2,8.7c2,1.8,4.4,2.7,7.2,2.7c3.4,0,6.2-1.2,8.5-3.5s3.5-5.2,3.5-8.6
				s-1.1-6-3.2-8.1s-4.9-3.2-8.2-3.2c-1.4,0-3,0.3-5,0.8l0.8-6.3c0.5,0.1,0.9,0.1,1.1,0.1c3,0,5.8-0.8,8.2-2.4
				c2.4-1.6,3.6-4,3.6-7.3c0-2.6-0.9-4.8-2.7-6.5s-4.1-2.6-6.9-2.6s-5.1,0.9-6.9,2.6c-1.9,1.7-3,4.4-3.6,7.8l-7.1-1.3
				c0.9-4.8,2.9-8.5,5.9-11.1c3.1-2.6,6.9-3.9,11.5-3.9c3.2,0,6.1,0.7,8.8,2s4.7,3.2,6.1,5.6c1.4,2.3,2.1,4.8,2.1,7.5
				s-0.7,4.8-2,6.9s-3.3,3.7-6,4.9c3.4,0.8,6.1,2.4,8,4.9s2.9,5.6,2.9,9.4c0,5.1-1.9,9.4-5.6,12.9s-8.4,5.3-14,5.3
				c-5.1,0-9.3-1.5-12.7-4.6C172.7,135.8,170.7,131.9,170.3,127.1L170.3,127.1z"/>
			<path class="st0" d="M252.4,98.5l-7.1,0.6c-0.6-2.8-1.5-4.8-2.7-6.1c-1.9-2-4.3-3.1-7.1-3.1c-2.3,0-4.3,0.6-6,1.9
				c-2.2,1.6-4,4-5.3,7.2s-2,7.6-2,13.4c1.7-2.6,3.8-4.6,6.3-5.8c2.5-1.3,5.1-1.9,7.8-1.9c4.8,0,8.8,1.8,12.1,5.2s5,8,5,13.6
				c0,3.7-0.8,7-2.4,10.2s-3.7,5.5-6.5,7.2s-5.9,2.5-9.4,2.5c-5.9,0-10.8-2.2-14.6-6.6s-5.6-11.6-5.6-21.6c0-11.2,2.1-19.4,6.2-24.5
				c3.6-4.4,8.5-6.7,14.6-6.7c4.6,0,8.3,1.3,11.2,3.8C250.1,90.5,251.8,94,252.4,98.5L252.4,98.5z M223.3,123.6
				c0,2.5,0.5,4.8,1.6,7.1c1,2.2,2.5,4,4.4,5.1c1.9,1.2,3.9,1.8,5.9,1.8c3,0,5.6-1.2,7.8-3.6s3.2-5.7,3.2-9.9s-1.1-7.2-3.2-9.5
				s-4.8-3.5-8.1-3.5s-6,1.2-8.2,3.5S223.3,119.8,223.3,123.6L223.3,123.6z"/>
			<path class="st0" d="M260.6,113.8c0-6.9,0.7-12.4,2.1-16.6c1.4-4.2,3.5-7.4,6.3-9.7c2.8-2.3,6.3-3.4,10.5-3.4
				c3.1,0,5.9,0.6,8.2,1.9c2.4,1.2,4.3,3.1,5.8,5.4c1.5,2.4,2.7,5.2,3.6,8.6c0.9,3.4,1.3,8,1.3,13.7c0,6.8-0.7,12.3-2.1,16.5
				s-3.5,7.4-6.3,9.7c-2.8,2.3-6.3,3.4-10.6,3.4c-5.6,0-10-2-13.2-6C262.5,132.5,260.6,124.7,260.6,113.8L260.6,113.8z M267.9,113.8
				c0,9.5,1.1,15.9,3.4,19.1s5,4.7,8.3,4.7s6-1.6,8.3-4.8s3.4-9.5,3.4-19s-1.1-15.9-3.4-19.1c-2.2-3.1-5-4.7-8.3-4.7
				s-5.9,1.4-7.9,4.2C269.1,97.7,267.9,104.2,267.9,113.8L267.9,113.8z"/>
			<path class="st0" d="M339.7,83.3c3.8,0,7,1.3,9.4,4s3.6,6.3,3.6,10.9s-1.2,8.3-3.6,10.9s-5.5,4-9.3,4s-7-1.3-9.4-3.9
				c-2.4-2.6-3.6-6.2-3.6-10.8s1.2-8.5,3.6-11.1S335.9,83.3,339.7,83.3L339.7,83.3z M339.7,88.6c-2.1,0-3.9,0.8-5.2,2.3
				c-1.3,1.5-2,4-2,7.4s0.7,5.8,2,7.3s3,2.3,5.1,2.3s3.8-0.8,5.1-2.3s2-4.1,2-7.5c0-3.2-0.7-5.6-2-7.1
				C343.5,89.3,341.8,88.6,339.7,88.6L339.7,88.6z"/>
		</g>
	</g>
</g>
</svg>
